<svg width="282" height="20" fill="none" xmlns="http://www.w3.org/2000/svg"><path fill-rule="evenodd" clip-rule="evenodd" d="M9.994 20C4.59 20 .188 15.715 0 10.357h3.602a6.787 6.787 0 006.749 6.072h11.786a6.786 6.786 0 006.785-6.786V0h3.572v10c0 5.523-4.477 10-10 10h-12.5zM39.637 0h-3.572v10c0 5.523 4.477 10 10 10h12.5c5.523 0 10-4.477 10-10V0h-3.571v9.643a6.786 6.786 0 01-6.786 6.786H46.422a6.786 6.786 0 01-6.785-6.786V0zm31.586 0l12.663 9.933L71.053 20h5.787l9.94-7.797L96.72 20h5.786L89.673 9.933 102.336 0h-5.787l-9.77 7.664L77.01 0h-5.786zm62.342 0h-28.571v3.571h12.5V20h3.571V3.571h12.5V0zm11.022 0l2.525 2.525L164.587 20h-5.051L144.587 5.05 129.638 20h-4.952l-.049-.05 17.425-17.425L144.587 0z" fill="#223747"/><path d="M175.719 13c1.34 0 2.411-1.072 2.411-2.86 0-1.8-1.071-2.872-2.411-2.872-.953 0-1.521.493-1.842 1.018h-.022V5.21h-.696v7.66h.696v-.932h.022c.321.59.889 1.06 1.842 1.06zm-1.864-2.86c0-1.383.739-2.272 1.789-2.272 1.136 0 1.758 1.04 1.758 2.271 0 1.222-.622 2.25-1.758 2.25-1.05 0-1.789-.878-1.789-2.25zM179.479 14.79c.729 0 1.211-.397 1.747-1.758l2.185-5.625h-.75l-1.692 4.554h-.022l-1.778-4.554h-.772l2.207 5.432c-.3 1.007-.718 1.34-1.232 1.34-.171 0-.257-.011-.418-.033v.6c.225.032.354.043.525.043z" fill="#223747"/><path d="M206.55 13.981a9.447 9.447 0 01-4.653 3.533 16.062 16.062 0 007.263-2.028l-2.61-1.505" fill="#25508F"/><path d="M203.408.195c-.24-.073-.483-.138-.728-.195.046.02.091.041.136.063 4.721 2.224 6.744 7.85 4.517 12.564l3.97 2.29c1.891-6.243-1.644-12.834-7.895-14.722z" fill="#688847"/><path d="M210.399 16.357c-4.29 2.972-10.179 1.908-13.154-2.376l-3.971 2.29c4.469 4.756 11.951 4.994 16.714.532.183-.172.361-.35.533-.532l-.122.086z" fill="#25508F"/><path d="M195.725 6.837a16.003 16.003 0 00-1.873 7.295l2.61-1.505a9.43 9.43 0 01-.737-5.79z" fill="#B6273D"/><path d="M192.296 14.19c.058.244.123.487.196.727l-.014-.15c-.432-5.195 3.435-9.757 8.637-10.188V0c-6.359 1.486-10.307 7.84-8.819 14.19z" fill="#B6273D"/><path d="M202.68 1.57v3.009a9.463 9.463 0 015.39 2.258 16.035 16.035 0 00-5.39-5.268z" fill="#688847"/><path d="M222.273 8.011c-.931.403-1.92.652-2.928.652-2.409 0-3.926-1.418-3.926-3.518 0-1.879 1.421-3.595 4.176-3.595a7.07 7.07 0 012.227.355v1.514c-.298-.182-.998-.604-2.016-.604-1.536 0-2.563.969-2.563 2.31 0 1.218.816 2.33 2.352 2.33.489 0 .797-.115 1.027-.2l.019-1.286h-1.603l.691-1.217h2.563l-.019 3.26M224.692 8.49h-1.776V1.724h1.776V8.49zM229.703 8.49h-4.109V1.724h1.776v5.416h3.12l-.787 1.352zM230.701 1.723h2.88c.96 0 2.121.45 2.121 1.773 0 .69-.374 1.16-1.027 1.448.163.067.384.143.586.287.412.278.681.767.681 1.323 0 .556-.259 1.103-.748 1.477-.567.44-1.2.46-1.69.46h-2.803V1.723zm1.699 3.623l.615-.9c.134 0 .288 0 .441-.04.423-.105.614-.402.614-.718 0-.623-.556-.71-1.017-.71h-.653v2.368zm0 1.908h.701c.653 0 1.085-.268 1.085-.882 0-.757-.672-.882-1.344-.882h-.442v1.764M242.902 8.49h-1.872l-.461-1.351h-2.419l-.489 1.352h-1.757l2.669-6.768h1.718l2.611 6.768zm-2.688-2.396l-.72-2.138c-.048-.153-.067-.201-.096-.374-.067.211-.067.23-.106.336l-.777 2.176h1.699zM249.276 8.49h-1.93l-1.728-2.866c-.336.02-.384.02-.768.02V8.49h-1.727V1.723h3.071c1.056 0 2.17.556 2.17 1.888 0 .278-.058.546-.173.786-.241.537-.644.777-.864.911l1.949 3.183zM244.85 5.5l.672-.95c.211-.009.346-.009.499-.047a.766.766 0 00.605-.767.71.71 0 00-.298-.604c-.22-.163-.547-.163-.921-.163h-.557v2.53z" fill="#223747"/><path d="M253.844 8.481c-.249.067-.671.182-1.42.182-2.429 0-3.859-1.524-3.859-3.48 0-1.907 1.354-3.633 3.984-3.633.768 0 1.353.144 1.814.278v1.505c-.24-.153-.797-.508-1.603-.508-1.498 0-2.352 1.045-2.352 2.282 0 1.303.922 2.32 2.496 2.32.605 0 1.209-.135 1.766-.365l-.826 1.42" fill="#223747"/><path d="M258.299 8.663c-2.362 0-3.754-1.524-3.754-3.556 0-1.985 1.402-3.557 3.715-3.557 2.342 0 3.696 1.62 3.696 3.518 0 1.87-1.296 3.595-3.657 3.595zm1.785-3.537c0-1.304-.691-2.272-1.824-2.272-1.113 0-1.843.958-1.843 2.243 0 1.246.691 2.224 1.843 2.224 1.258 0 1.824-1.17 1.824-2.195M219.397 18.271h-1.565l-2.697-6.768h1.929l1.622 4.66 1.67-4.66h1.776l-2.735 6.768zM226.538 18.271h-4.137v-6.768h4.396v1.333h-2.63v1.294h2.256v1.323h-2.256v1.476h3.139l-.768 1.343M231.703 18.271h-4.138v-6.768h4.397v1.333h-2.631v1.294h2.256v1.323h-2.256v1.476h3.139l-.767 1.343M232.729 11.503h3.034c1.881 0 3.359 1.208 3.359 3.327 0 .968-.345 1.86-.95 2.473-.922.93-2.016.968-2.774.968h-2.669v-6.768zm1.757 5.465h.499c.375 0 .768-.01 1.171-.192.864-.393 1.094-1.237 1.094-1.898 0-1.275-.815-2.042-2.044-2.061h-.72v4.15M243.644 18.271h-4.138v-6.768h4.397v1.333h-2.631v1.294h2.256v1.323h-2.256v1.476h3.14l-.768 1.343M250.824 18.271h-1.93l-1.727-2.866c-.336.02-.384.02-.768.02v2.846h-1.728v-6.768h3.072c1.055 0 2.169.556 2.169 1.889 0 .278-.058.546-.173.786-.24.537-.643.777-.864.91l1.949 3.184zm-4.425-2.99l.671-.95c.212-.01.346-.01.5-.047a.766.766 0 00.604-.768.71.71 0 00-.297-.603c-.221-.164-.547-.164-.921-.164h-.557v2.531M253.578 15.53h-2.841l.72-1.054h2.841l-.72 1.054M261.122 18.271h-1.929l-1.728-2.866c-.336.02-.384.02-.768.02v2.846h-1.728v-6.768h3.072c1.056 0 2.169.556 2.169 1.889a1.8 1.8 0 01-.173.786c-.239.537-.643.777-.863.91l1.948 3.184zm-4.425-2.99l.672-.95c.211-.01.346-.01.499-.047a.767.767 0 00.605-.768.71.71 0 00-.298-.603c-.221-.164-.547-.164-.921-.164h-.557v2.531" fill="#223747"/><path d="M264.357 18.444c-2.362 0-3.753-1.524-3.753-3.557 0-1.984 1.401-3.557 3.714-3.557 2.342 0 3.696 1.62 3.696 3.519 0 1.87-1.296 3.595-3.657 3.595zm1.785-3.537c0-1.304-.691-2.273-1.824-2.273-1.113 0-1.842.96-1.842 2.244 0 1.246.691 2.224 1.842 2.224 1.258 0 1.824-1.17 1.824-2.196M272.124 18.444c-2.362 0-3.754-1.524-3.754-3.557 0-1.984 1.402-3.557 3.715-3.557 2.342 0 3.696 1.62 3.696 3.519 0 1.87-1.296 3.595-3.657 3.595zm1.785-3.537c0-1.304-.691-2.273-1.824-2.273-1.113 0-1.843.96-1.843 2.244 0 1.246.691 2.224 1.843 2.224 1.258 0 1.824-1.17 1.824-2.196M279.131 18.271h-1.766v-5.426h-1.94v-1.342h5.625v1.342h-1.919v5.426zM281.05 9.98h-65.871v-.264h65.871v.265z" fill="#223747"/><path d="M209.969 19.114h-.313v.862h-.199v-.862h-.314v-.161h.826v.161zm.779.564l.278-.725h.286v1.023h-.186v-.8h-.005l-.306.8h-.139l-.307-.8h-.004v.8h-.187v-1.023h.288l.282.725" fill="#251D62"/></svg>